<svg width="13" height="14" viewBox="0 0 13 14" fill="none" xmlns="http://www.w3.org/2000/svg">
<path d="M0.5 3.38889H12.5M5 6.27778V10.6111M8 6.27778V10.6111M1.25 3.38889L2 12.0556C2 12.4386 2.15804 12.806 2.43934 13.0769C2.72064 13.3478 3.10218 13.5 3.5 13.5H9.5C9.89782 13.5 10.2794 13.3478 10.5607 13.0769C10.842 12.806 11 12.4386 11 12.0556L11.75 3.38889M4.25 3.38889V1.22222C4.25 1.03068 4.32902 0.846977 4.46967 0.711534C4.61032 0.576091 4.80109 0.5 5 0.5H8C8.19891 0.5 8.38968 0.576091 8.53033 0.711534C8.67098 0.846977 8.75 1.03068 8.75 1.22222V3.38889" stroke="#EF4444" stroke-linecap="round" stroke-linejoin="round"/>
</svg>
